<?xml version="1.0" encoding="UTF-8" standalone="no"?>
<!-- Created with Inkscape (http://www.inkscape.org/) -->

<svg
   version="1.1"
   id="svg4640"
   width="880"
   height="880"
   viewBox="0 0 880 880"
   sodipodi:docname="metal-pipes-publicdomainvectors.org.svg"
   inkscape:version="1.2 (dc2aedaf03, 2022-05-15)"
   xmlns:inkscape="http://www.inkscape.org/namespaces/inkscape"
   xmlns:sodipodi="http://sodipodi.sourceforge.net/DTD/sodipodi-0.dtd"
   xmlns="http://www.w3.org/2000/svg"
   xmlns:svg="http://www.w3.org/2000/svg">
  <defs
     id="defs4644" />
  <sodipodi:namedview
     id="namedview4642"
     pagecolor="#ffffff"
     bordercolor="#000000"
     borderopacity="0.25"
     inkscape:showpageshadow="2"
     inkscape:pageopacity="0.0"
     inkscape:pagecheckerboard="0"
     inkscape:deskcolor="#d1d1d1"
     showgrid="false"
     inkscape:zoom="0.95113636"
     inkscape:cx="440.52569"
     inkscape:cy="440.52569"
     inkscape:window-width="1920"
     inkscape:window-height="1017"
     inkscape:window-x="-8"
     inkscape:window-y="-8"
     inkscape:window-maximized="1"
     inkscape:current-layer="g4648">
    <inkscape:page
       x="0"
       y="0"
       id="page4646"
       width="880"
       height="880" />
  </sodipodi:namedview>
  <g
     id="g4648"
     inkscape:groupmode="layer"
     inkscape:label="Page 1"
     transform="matrix(1.3333333,0,0,-1.3333333,0,880)">
    <path
       d="m 0.064,0 h 659.87 V 658.218 H 0.064 Z"
       style="fill:#312927;fill-opacity:1;fill-rule:nonzero;stroke:none"
       id="path4650" />
    <path
       d="m 43.043,0 h 78.376 V 658.218 H 43.043 Z"
       style="fill:#5c5452;fill-opacity:1;fill-rule:nonzero;stroke:none"
       id="path4652" />
    <g
       id="g4654"
       transform="translate(38.3037,583.3169)">
      <path
         d="m 0,0 h 87.857 v -51.511 l -4.741,-4.741 H 4.741 L 0,-51.511 Z"
         style="fill:#5c5452;fill-opacity:1;fill-rule:evenodd;stroke:none"
         id="path4656" />
    </g>
    <path
       d="m 34.669,580 h 95.125 v 9.954 H 34.669 Z"
       style="fill:#6e6665;fill-opacity:1;fill-rule:evenodd;stroke:none"
       id="path4658" />
    <g
       id="g4660"
       transform="translate(38.3037,531.8062)">
      <path
         d="M 0,0 H 87.857 L 83.116,-4.741 H 4.741 Z"
         style="fill:#504745;fill-opacity:1;fill-rule:evenodd;stroke:none"
         id="path4662" />
    </g>
    <g
       id="g4664"
       transform="translate(38.3037,191.4404)">
      <path
         d="m 0,0 h 87.857 v -51.511 l -4.741,-4.741 H 4.741 L 0,-51.511 Z"
         style="fill:#5c5452;fill-opacity:1;fill-rule:evenodd;stroke:none"
         id="path4666" />
    </g>
    <path
       d="m 34.669,188.124 h 95.125 v 9.954 H 34.669 Z"
       style="fill:#6e6665;fill-opacity:1;fill-rule:evenodd;stroke:none"
       id="path4668" />
    <g
       id="g4670"
       transform="translate(38.3037,139.9297)">
      <path
         d="M 0,0 H 87.857 L 83.116,-4.741 H 4.741 Z"
         style="fill:#504745;fill-opacity:1;fill-rule:evenodd;stroke:none"
         id="path4672" />
    </g>
    <path
       d="m 338.846,0 h 78.376 v 658.218 h -78.376 z"
       style="fill:#5c5452;fill-opacity:1;fill-rule:nonzero;stroke:none"
       id="path4674" />
    <g
       id="g4676"
       transform="translate(334.1064,494.8311)">
      <path
         d="m 0,0 h 87.857 v -51.513 l -4.741,-4.741 H 4.74 L 0,-51.513 Z"
         style="fill:#5c5452;fill-opacity:1;fill-rule:evenodd;stroke:none"
         id="path4678" />
    </g>
    <path
       d="m 330.473,491.512 h 95.126 v 9.956 h -95.126 z"
       style="fill:#6e6665;fill-opacity:1;fill-rule:evenodd;stroke:none"
       id="path4680" />
    <g
       id="g4682"
       transform="translate(334.1064,443.3179)">
      <path
         d="M 0,0 H 87.857 L 83.116,-4.741 H 4.74 Z"
         style="fill:#504745;fill-opacity:1;fill-rule:evenodd;stroke:none"
         id="path4684" />
    </g>
    <g
       id="g4686"
       transform="translate(334.1064,290.043)">
      <path
         d="m 0,0 h 87.857 v -51.513 l -4.741,-4.74 H 4.74 L 0,-51.513 Z"
         style="fill:#5c5452;fill-opacity:1;fill-rule:evenodd;stroke:none"
         id="path4688" />
    </g>
    <path
       d="m 330.473,286.725 h 95.126 v 9.956 h -95.126 z"
       style="fill:#6e6665;fill-opacity:1;fill-rule:evenodd;stroke:none"
       id="path4690" />
    <g
       id="g4692"
       transform="translate(334.1064,238.5303)">
      <path
         d="M 0,0 H 87.857 L 83.116,-4.74 H 4.74 Z"
         style="fill:#504745;fill-opacity:1;fill-rule:evenodd;stroke:none"
         id="path4694" />
    </g>
    <path
       d="m 512.032,0 h 78.376 v 658.218 h -78.376 z"
       style="fill:#5c5452;fill-opacity:1;fill-rule:nonzero;stroke:none"
       id="path4696" />
    <g
       id="g4698"
       transform="translate(507.291,610.0972)">
      <path
         d="m 0,0 h 87.856 v -51.513 l -4.74,-4.74 H 4.74 L 0,-51.513 Z"
         style="fill:#5c5452;fill-opacity:1;fill-rule:evenodd;stroke:none"
         id="path4700" />
    </g>
    <path
       d="m 503.657,606.781 h 95.126 v 9.954 h -95.126 z"
       style="fill:#6e6665;fill-opacity:1;fill-rule:evenodd;stroke:none"
       id="path4702" />
    <g
       id="g4704"
       transform="translate(507.291,558.584)">
      <path
         d="m 0,0 h 87.856 l -4.74,-4.74 H 4.74 Z"
         style="fill:#504745;fill-opacity:1;fill-rule:evenodd;stroke:none"
         id="path4706" />
    </g>
    <g
       id="g4708"
       transform="translate(507.291,261.915)">
      <path
         d="m 0,0 h 87.856 v -51.513 l -4.74,-4.74 H 4.74 L 0,-51.513 Z"
         style="fill:#5c5452;fill-opacity:1;fill-rule:evenodd;stroke:none"
         id="path4710" />
    </g>
    <path
       d="m 503.657,258.599 h 95.126 v 9.954 h -95.126 z"
       style="fill:#6e6665;fill-opacity:1;fill-rule:evenodd;stroke:none"
       id="path4712" />
    <g
       id="g4714"
       transform="translate(507.291,210.4023)">
      <path
         d="m 0,0 h 87.856 l -4.74,-4.74 H 4.74 Z"
         style="fill:#504745;fill-opacity:1;fill-rule:evenodd;stroke:none"
         id="path4716" />
    </g>
    <path
       d="m 0.064,476.415 h 659.87 V 554.79 H 0.064 Z"
       style="fill:#766864;fill-opacity:1;fill-rule:nonzero;stroke:none"
       id="path4718" />
    <g
       id="g4720"
       transform="translate(585.0352,471.6738)">
      <path
         d="m 0,0 v 87.856 h -51.514 l -4.74,-4.74 V 4.741 L -51.514,0 Z"
         style="fill:#766864;fill-opacity:1;fill-rule:evenodd;stroke:none"
         id="path4722" />
    </g>
    <path
       d="m 591.673,563.166 h -9.956 V 468.04 h 9.956 z"
       style="fill:#8c7d79;fill-opacity:1;fill-rule:evenodd;stroke:none"
       id="path4724" />
    <g
       id="g4726"
       transform="translate(533.5215,471.6738)">
      <path
         d="m 0,0 v 87.856 l -4.74,-4.74 V 4.741 Z"
         style="fill:#685954;fill-opacity:1;fill-rule:evenodd;stroke:none"
         id="path4728" />
    </g>
    <g
       id="g4730"
       transform="translate(257.6274,471.6738)">
      <path
         d="m 0,0 v 87.856 h -51.513 l -4.74,-4.74 V 4.741 L -51.513,0 Z"
         style="fill:#766864;fill-opacity:1;fill-rule:evenodd;stroke:none"
         id="path4732" />
    </g>
    <path
       d="m 264.265,563.166 h -9.956 V 468.04 h 9.956 z"
       style="fill:#8c7d79;fill-opacity:1;fill-rule:evenodd;stroke:none"
       id="path4734" />
    <g
       id="g4736"
       transform="translate(206.1143,471.6738)">
      <path
         d="m 0,0 v 87.856 l -4.74,-4.74 V 4.741 Z"
         style="fill:#685954;fill-opacity:1;fill-rule:evenodd;stroke:none"
         id="path4738" />
    </g>
    <path
       d="m 0.064,80.746 h 659.87 v 78.375 H 0.064 Z"
       style="fill:#766864;fill-opacity:1;fill-rule:nonzero;stroke:none"
       id="path4740" />
    <g
       id="g4742"
       transform="translate(492.7549,76.0049)">
      <path
         d="m 0,0 v 87.857 h -51.514 l -4.74,-4.741 V 4.741 L -51.514,0 Z"
         style="fill:#766864;fill-opacity:1;fill-rule:evenodd;stroke:none"
         id="path4744" />
    </g>
    <path
       d="m 499.391,167.495 h -9.954 V 72.372 h 9.954 z"
       style="fill:#8c7d79;fill-opacity:1;fill-rule:evenodd;stroke:none"
       id="path4746" />
    <g
       id="g4748"
       transform="translate(441.2412,76.0049)">
      <path
         d="M 0,0 V 87.857 L -4.74,83.116 V 4.741 Z"
         style="fill:#685954;fill-opacity:1;fill-rule:evenodd;stroke:none"
         id="path4750" />
    </g>
    <g
       id="g4752"
       transform="translate(175.4619,76.0049)">
      <path
         d="m 0,0 v 87.857 h -51.515 l -4.741,-4.741 V 4.741 L -51.515,0 Z"
         style="fill:#766864;fill-opacity:1;fill-rule:evenodd;stroke:none"
         id="path4754" />
    </g>
    <path
       d="m 182.097,167.495 h -9.956 V 72.372 h 9.956 z"
       style="fill:#8c7d79;fill-opacity:1;fill-rule:evenodd;stroke:none"
       id="path4756" />
    <g
       id="g4758"
       transform="translate(123.9468,76.0049)">
      <path
         d="M 0,0 V 87.857 L -4.741,83.116 V 4.741 Z"
         style="fill:#685954;fill-opacity:1;fill-rule:evenodd;stroke:none"
         id="path4760" />
    </g>
    <path
       d="m 0.064,325.985 h 659.87 v 78.376 H 0.064 Z"
       style="fill:#766864;fill-opacity:1;fill-rule:nonzero;stroke:none"
       id="path4762" />
    <g
       id="g4764"
       transform="translate(610.0947,321.2451)">
      <path
         d="m 0,0 v 87.857 h -51.513 l -4.74,-4.741 V 4.74 L -51.513,0 Z"
         style="fill:#766864;fill-opacity:1;fill-rule:evenodd;stroke:none"
         id="path4766" />
    </g>
    <path
       d="m 616.732,412.735 h -9.956 v -95.126 h 9.956 z"
       style="fill:#8c7d79;fill-opacity:1;fill-rule:evenodd;stroke:none"
       id="path4768" />
    <g
       id="g4770"
       transform="translate(558.582,321.2451)">
      <path
         d="M 0,0 V 87.857 L -4.74,83.116 V 4.74 Z"
         style="fill:#685954;fill-opacity:1;fill-rule:evenodd;stroke:none"
         id="path4772" />
    </g>
    <g
       id="g4774"
       transform="translate(210.6328,321.2451)">
      <path
         d="m 0,0 v 87.857 h -51.511 l -4.741,-4.741 V 4.74 L -51.511,0 Z"
         style="fill:#766864;fill-opacity:1;fill-rule:evenodd;stroke:none"
         id="path4776" />
    </g>
    <path
       d="m 217.27,412.735 h -9.954 v -95.126 h 9.954 z"
       style="fill:#8c7d79;fill-opacity:1;fill-rule:evenodd;stroke:none"
       id="path4778" />
    <g
       id="g4780"
       transform="translate(159.1216,321.2451)">
      <path
         d="M 0,0 V 87.857 L -4.741,83.116 V 4.74 Z"
         style="fill:#685954;fill-opacity:1;fill-rule:evenodd;stroke:none"
         id="path4782" />
    </g>
    <path
       d="m 378.035,0 h 78.376 v 658.218 h -78.376 z"
       style="fill:#948681;fill-opacity:1;fill-rule:nonzero;stroke:none"
       id="path4784" />
    <g
       id="g4786"
       transform="translate(373.2949,583.3169)">
      <path
         d="m 0,0 h 87.857 v -51.511 l -4.741,-4.741 H 4.74 L 0,-51.511 Z"
         style="fill:#948681;fill-opacity:1;fill-rule:evenodd;stroke:none"
         id="path4788" />
    </g>
    <path
       d="m 369.662,589.955 h 95.123 v -9.954 h -95.123 z"
       style="fill:#b0a39e;fill-opacity:1;fill-rule:evenodd;stroke:none"
       id="path4790" />
    <g
       id="g4792"
       transform="translate(373.2949,531.8062)">
      <path
         d="M 0,0 H 87.857 L 83.116,-4.741 H 4.74 Z"
         style="fill:#8a7975;fill-opacity:1;fill-rule:evenodd;stroke:none"
         id="path4794" />
    </g>
    <g
       id="g4796"
       transform="translate(373.2949,226.8379)">
      <path
         d="m 0,0 h 87.857 v -51.514 l -4.741,-4.74 H 4.74 L 0,-51.514 Z"
         style="fill:#948681;fill-opacity:1;fill-rule:evenodd;stroke:none"
         id="path4798" />
    </g>
    <path
       d="m 369.662,233.475 h 95.123 v -9.956 h -95.123 z"
       style="fill:#b0a39e;fill-opacity:1;fill-rule:evenodd;stroke:none"
       id="path4800" />
    <g
       id="g4802"
       transform="translate(373.2949,175.3242)">
      <path
         d="M 0,0 H 87.857 L 83.116,-4.74 H 4.74 Z"
         style="fill:#8a7975;fill-opacity:1;fill-rule:evenodd;stroke:none"
         id="path4804" />
    </g>
    <path
       d="m 75.816,0 h 78.376 V 658.218 H 75.816 Z"
       style="fill:#948681;fill-opacity:1;fill-rule:nonzero;stroke:none"
       id="path4806" />
    <g
       id="g4808"
       transform="translate(71.0732,583.3169)">
      <path
         d="m 0,0 h 87.859 v -51.511 l -4.74,-4.741 H 4.743 L 0,-51.511 Z"
         style="fill:#948681;fill-opacity:1;fill-rule:evenodd;stroke:none"
         id="path4810" />
    </g>
    <path
       d="m 67.44,589.955 h 95.125 v -9.954 H 67.44 Z"
       style="fill:#b0a39e;fill-opacity:1;fill-rule:evenodd;stroke:none"
       id="path4812" />
    <g
       id="g4814"
       transform="translate(71.0732,531.8062)">
      <path
         d="m 0,0 h 87.859 l -4.74,-4.741 H 4.743 Z"
         style="fill:#8a7975;fill-opacity:1;fill-rule:evenodd;stroke:none"
         id="path4816" />
    </g>
    <g
       id="g4818"
       transform="translate(71.0732,108.874)">
      <path
         d="m 0,0 h 87.859 v -51.514 l -4.74,-4.74 H 4.743 L 0,-51.514 Z"
         style="fill:#948681;fill-opacity:1;fill-rule:evenodd;stroke:none"
         id="path4820" />
    </g>
    <path
       d="m 67.44,115.509 h 95.125 v -9.954 H 67.44 Z"
       style="fill:#b0a39e;fill-opacity:1;fill-rule:evenodd;stroke:none"
       id="path4822" />
    <g
       id="g4824"
       transform="translate(71.0732,57.3604)">
      <path
         d="m 0,0 h 87.859 l -4.74,-4.74 H 4.743 Z"
         style="fill:#8a7975;fill-opacity:1;fill-rule:evenodd;stroke:none"
         id="path4826" />
    </g>
    <path
       d="m 0.064,184.399 h 659.87 v 78.376 H 0.064 Z"
       style="fill:#b2a29e;fill-opacity:1;fill-rule:nonzero;stroke:none"
       id="path4828" />
    <g
       id="g4830"
       transform="translate(585.0352,267.5176)">
      <path
         d="m 0,0 v -87.858 h -51.514 l -4.74,4.74 V -4.742 L -51.514,0 Z"
         style="fill:#b2a29e;fill-opacity:1;fill-rule:evenodd;stroke:none"
         id="path4832" />
    </g>
    <path
       d="m 591.673,176.025 h -9.956 v 95.126 h 9.956 z"
       style="fill:#d7c6c2;fill-opacity:1;fill-rule:evenodd;stroke:none"
       id="path4834" />
    <g
       id="g4836"
       transform="translate(533.5215,267.5176)">
      <path
         d="m 0,0 v -87.858 l -4.74,4.74 v 78.376 z"
         style="fill:#a2908c;fill-opacity:1;fill-rule:evenodd;stroke:none"
         id="path4838" />
    </g>
    <g
       id="g4840"
       transform="translate(273.2129,267.5176)">
      <path
         d="m 0,0 v -87.858 h -51.513 l -4.743,4.74 V -4.742 L -51.513,0 Z"
         style="fill:#b2a29e;fill-opacity:1;fill-rule:evenodd;stroke:none"
         id="path4842" />
    </g>
    <path
       d="m 279.851,176.025 h -9.956 v 95.126 h 9.956 z"
       style="fill:#d7c6c2;fill-opacity:1;fill-rule:evenodd;stroke:none"
       id="path4844" />
    <g
       id="g4846"
       transform="translate(221.6997,267.5176)">
      <path
         d="m 0,0 v -87.858 l -4.743,4.74 v 78.376 z"
         style="fill:#a2908c;fill-opacity:1;fill-rule:evenodd;stroke:none"
         id="path4848" />
    </g>
    <path
       d="m 0.064,432.487 h 659.87 v 78.376 H 0.064 Z"
       style="fill:#b2a29e;fill-opacity:1;fill-rule:nonzero;stroke:none"
       id="path4850" />
    <g
       id="g4852"
       transform="translate(507.0732,515.603)">
      <path
         d="m 0,0 v -87.856 h -51.512 l -4.742,4.74 V -4.74 L -51.512,0 Z"
         style="fill:#b2a29e;fill-opacity:1;fill-rule:evenodd;stroke:none"
         id="path4854" />
    </g>
    <path
       d="m 513.71,424.113 h -9.954 v 95.124 h 9.954 z"
       style="fill:#d7c6c2;fill-opacity:1;fill-rule:evenodd;stroke:none"
       id="path4856" />
    <g
       id="g4858"
       transform="translate(455.5615,515.603)">
      <path
         d="m 0,0 v -87.856 l -4.742,4.74 V -4.74 Z"
         style="fill:#a2908c;fill-opacity:1;fill-rule:evenodd;stroke:none"
         id="path4860" />
    </g>
    <g
       id="g4862"
       transform="translate(182.3174,515.603)">
      <path
         d="m 0,0 v -87.856 h -51.513 l -4.74,4.74 V -4.74 l 4.74,4.74 z"
         style="fill:#b2a29e;fill-opacity:1;fill-rule:evenodd;stroke:none"
         id="path4864" />
    </g>
    <path
       d="m 188.955,424.113 h -9.957 v 95.124 h 9.957 z"
       style="fill:#d7c6c2;fill-opacity:1;fill-rule:evenodd;stroke:none"
       id="path4866" />
    <g
       id="g4868"
       transform="translate(130.8042,515.603)">
      <path
         d="m 0,0 v -87.856 l -4.74,4.74 V -4.74 Z"
         style="fill:#a2908c;fill-opacity:1;fill-rule:evenodd;stroke:none"
         id="path4870" />
    </g>
  </g>
</svg>
